# xmcd CD database file
#
# Track frame offsets:
#	150
#	10817
#	31196
#	58446
#	87777
#	107561
#	116002
#	138144
#	150925
#	166204
#	185407
#	202470
#	216326
#	226981
#	248876
#	263559
#	275001
#	290972
#
# Disc length: 4115 seconds
#
# Revision: 0
# Processed by: cddbd v1.5.2PL0 Copyright (c) Steve Scherf et al.
# Submitted via: CDex 1.70beta2
#
DISCID=06101112
DTITLE=Nick The Nightfly - 100 Hits In Jazz - CD 5
DYEAR=2009
DGENRE=Jazz
TTITLE0=Mundell Lowe And His All Stars - Peter Gunn
TTITLE1=Stan getz - Don't Cry For Me Argentina
TTITLE2=Eumir Deodato - Nights In White Satin
TTITLE3=Weather Report - Balack Market
TTITLE4=J J Johnson - So What
TTITLE5=Mundell Lowe - Perry Mason Theme
TTITLE6=J J Johnson - My Little Suede Shoes
TTITLE7=Duke Ellington And His Orchestra - Caravan
TTITLE8=Glen Miller And His Orchestra - Moonlight Serenade
TTITLE9=Stephane Grappelli And Django Reinhardt - Beyond The Sea (La Mer)
TTITLE10=Duke Ellington And His Orchestra - Mood Indigo
TTITLE11=Tuck And Patti - They Can't Take That Away From Me
TTITLE12=Helen merrill - Why Don't You Do Right
TTITLE13=The Dave Brubeck Quartet - When You Wish Upon A Star
TTITLE14=Cab Calloway - Minnie The Moocher
TTITLE15=Rosemary Clooney - Mambo Italiano
TTITLE16=Glen Miller And His Orchestra - In The Mood
TTITLE17=Mahalia Jackson - When The Saints Go Marching In
EXTD=YEAR: 2009
EXTT0=
EXTT1=
EXTT2=
EXTT3=
EXTT4=
EXTT5=
EXTT6=
EXTT7=
EXTT8=
EXTT9=
EXTT10=
EXTT11=
EXTT12=
EXTT13=
EXTT14=
EXTT15=
EXTT16=
EXTT17=
PLAYORDER=
